<svg width="300" height="300" viewBox="0 0 300 300" fill="none" xmlns="http://www.w3.org/2000/svg">
<path d="M23.0962 76.732L150 3.4641L276.904 76.732V223.268L150 296.536L23.0962 223.268V76.732Z" fill="white" stroke="url(#paint0_linear_77_61)" stroke-width="6"/>
<path d="M86.2332 71.2332L85 72.4664V150V227.534L86.2332 228.767L87.4664 230H116.241H145.016L145.996 229.178C148.304 227.249 147.925 223.138 145.332 221.747C144.889 221.494 137.111 221.399 119.277 221.431L93.8538 221.494V150V78.5375L150.075 78.6008L206.265 78.6956V138.458V198.221L195.64 198.379C185.553 198.538 184.953 198.569 184.289 199.17C182.739 200.561 182.708 200.877 182.708 211.281V221.051L181.727 221.273C181.19 221.368 177.964 221.462 174.581 221.462C167.814 221.462 166.992 221.652 166.107 223.36C165.854 223.866 165.632 225.004 165.632 225.921C165.632 227.375 165.759 227.66 166.866 228.767L168.099 230H178.565H189L191.15 228.103C192.352 227.091 198.233 221.336 204.304 215.391L215.277 204.545V138.49V72.4664L214.043 71.2332L212.81 70H150.138H87.4664L86.2332 71.2332ZM211.451 72.6877C211.957 72.9407 212.431 73.3834 212.557 73.6364C212.652 73.9209 212.747 103.233 212.747 138.775V203.375L200.7 215.17C194.091 221.684 188.304 227.154 187.83 227.375C186.597 227.913 170.502 227.945 169.427 227.375C168.32 226.806 167.877 225.447 168.605 224.656C169.111 224.087 169.711 224.055 176.668 223.929C182.455 223.866 184.32 223.739 184.7 223.391C185.174 223.012 185.237 221.874 185.237 212.893C185.237 206.063 185.364 202.585 185.585 202.047C185.806 201.605 186.375 201.099 186.913 200.909C187.482 200.719 191.688 200.593 197.822 200.593C206.644 200.593 207.877 200.53 208.383 200.055C208.921 199.581 208.953 197.241 208.953 138.427V77.3043L208.13 76.6719L207.277 76.0079H150.138H93L92.1462 76.6719L91.3241 77.3043V150V222.696L92.1462 223.328C93 223.992 93.1581 223.992 118.549 223.992H144.13L144.636 224.783C145.079 225.478 145.111 225.731 144.763 226.364C144.542 226.775 143.941 227.281 143.403 227.47C142.771 227.692 133.664 227.787 116.083 227.787C88.0988 227.787 88.2885 227.787 87.7194 226.364C87.6245 226.079 87.5296 191.644 87.5296 149.874C87.5296 89.5731 87.6245 73.8261 87.9407 73.415C88.1304 73.162 88.6047 72.7826 88.9526 72.5929C89.3953 72.3399 106.913 72.2451 150.075 72.2134C202.565 72.2134 210.692 72.2767 211.451 72.6877Z" fill="black"/>
<path d="M189.915 205.052C189.409 205.336 189.346 206 189.346 211.597C189.346 220.83 189.346 220.83 197.599 212.704C205.725 204.704 205.725 204.704 196.65 204.704C193.014 204.704 190.231 204.862 189.915 205.052ZM199.148 207.328C199.148 207.36 197.504 209.036 195.512 211.028L191.875 214.664V210.933V207.233H195.512C197.504 207.233 199.148 207.265 199.148 207.328Z" fill="black"/>
<path d="M104.131 83.5651C103.625 83.8813 102.898 84.4504 102.55 84.8615C101.917 85.5572 101.917 86.0631 101.854 115.186C101.759 144.371 101.759 144.782 102.392 145.826C103.625 147.85 103.024 147.786 126.55 147.786C138.281 147.786 148.21 147.66 148.621 147.502C149.032 147.344 149.728 146.838 150.234 146.363L151.087 145.478V115.533C151.087 85.6204 151.087 85.5888 150.423 84.735C148.969 82.901 149.854 82.9643 126.518 82.9643C106.186 82.9643 105.016 82.9959 104.131 83.5651ZM147.388 85.8417C147.767 86.0631 148.178 86.3793 148.305 86.569C148.431 86.7587 148.558 99.818 148.558 115.597V144.277L147.862 144.751C147.23 145.194 144.668 145.257 126.423 145.257C115.04 145.257 105.554 145.13 105.364 145.004C104.321 144.308 104.289 143.549 104.289 115.312C104.289 85.6204 104.226 86.6639 105.712 85.8734C106.629 85.3674 146.439 85.3674 147.388 85.8417Z" fill="black"/>
<path d="M108.78 89.9839C108.495 90.2684 108.4 96.3396 108.4 115.375C108.4 139.217 108.432 140.45 108.97 140.925C109.475 141.399 110.487 141.462 116.527 141.462C124.748 141.462 124.527 141.557 124.527 138.268C124.527 135.992 124.875 135.264 126.171 134.98C126.835 134.822 127.215 134.948 127.815 135.581C128.543 136.276 128.638 136.656 128.638 138.395C128.638 141.525 128.479 141.462 136.764 141.462C143.088 141.462 143.752 141.399 144.226 140.893C144.732 140.355 144.764 138.142 144.764 115.344C144.764 96.3396 144.669 90.2684 144.385 89.9839C143.847 89.4463 109.317 89.4463 108.78 89.9839ZM142.171 115.438L142.234 138.932H136.701H131.167V137.162C131.167 134.158 129.428 132.292 126.614 132.292C123.578 132.292 121.997 133.905 121.997 137.004V138.932H116.464H110.93V115.375V91.8178L126.519 91.8811L142.076 91.976L142.171 115.438Z" fill="black"/>
<path d="M116.78 97.2887C115.705 98.2057 115.547 98.5219 115.42 100.071C115.199 103.012 116.401 104.593 119.215 104.972C120.258 105.131 120.954 105.004 121.808 104.625C123.642 103.739 124.211 102.791 124.211 100.577C124.211 98.8065 124.148 98.6168 122.978 97.4784C121.839 96.3085 121.65 96.2452 119.879 96.2452C118.203 96.2452 117.855 96.3717 116.78 97.2887ZM121.049 99.4073C121.397 99.7551 121.681 100.324 121.681 100.64C121.681 101.241 120.321 102.569 119.721 102.569C119.246 102.569 117.887 101.052 117.887 100.514C117.887 99.85 119.025 98.7749 119.784 98.7749C120.132 98.7749 120.701 99.0594 121.049 99.4073Z" fill="black"/>
<path d="M131.101 96.5937C128.951 97.3842 128.129 101.558 129.741 103.487C131.164 105.163 134.136 105.542 136.065 104.278C138.405 102.728 138.279 98.3645 135.844 96.8783C134.706 96.1826 132.587 96.0562 131.101 96.5937ZM134.2 99.0285C135.433 99.819 135.243 101.685 133.883 102.285C132.049 103.139 130.532 100.42 132.176 99.2815C132.935 98.7439 133.662 98.6491 134.2 99.0285Z" fill="black"/>
<path d="M117.126 110.127C115.861 110.98 115.387 111.929 115.355 113.731C115.355 116.546 116.905 118.063 119.846 118.063C122.755 118.063 124.178 116.641 124.209 113.731C124.209 112.245 124.083 111.897 123.071 110.791C121.964 109.589 121.838 109.526 119.972 109.526C118.612 109.526 117.79 109.716 117.126 110.127ZM121.174 112.751C121.838 113.7 121.806 114.364 121.079 115.028C120.225 115.818 118.802 115.565 118.233 114.554C117.822 113.795 117.822 113.637 118.296 112.878C118.992 111.803 120.478 111.739 121.174 112.751Z" fill="black"/>
<path d="M130.03 110.664C128.892 111.803 128.892 111.834 129.018 114.048C129.145 116.103 129.208 116.324 130.22 117.146C131.168 117.937 131.579 118.063 133.287 118.063C135.121 118.063 135.374 117.969 136.481 116.988C137.619 115.945 137.651 115.818 137.651 113.795C137.651 111.771 137.619 111.645 136.481 110.601C135.374 109.621 135.121 109.526 133.224 109.526C131.295 109.526 131.137 109.589 130.03 110.664ZM134.836 112.973C135.311 113.921 134.963 114.933 134.014 115.439C132.275 116.324 130.599 113.921 131.991 112.53C132.749 111.771 134.394 112.024 134.836 112.973Z" fill="black"/>
<path d="M117.506 122.964C116.272 123.66 115.355 125.335 115.355 126.948C115.355 128.719 115.861 129.699 117.253 130.648C118.201 131.28 118.644 131.375 120.225 131.28C121.901 131.154 122.186 131.027 123.134 129.984C124.114 128.94 124.209 128.624 124.209 126.948C124.209 124.893 123.608 123.786 121.996 122.964C120.857 122.363 118.612 122.363 117.506 122.964ZM121.3 125.905C121.49 126.189 121.68 126.663 121.68 126.98C121.68 127.739 120.573 128.814 119.782 128.814C118.992 128.814 117.885 127.739 117.885 126.948C117.885 126.6 118.265 126.031 118.739 125.683C119.624 124.956 120.604 125.051 121.3 125.905Z" fill="black"/>
<path d="M130.977 123.09C130.408 123.407 129.744 124.039 129.459 124.418C128.827 125.367 128.795 128.213 129.428 129.415C130.345 131.249 133.823 131.944 135.815 130.711C138.186 129.288 138.503 125.873 136.447 123.818C135.499 122.869 135.056 122.679 133.633 122.584C132.368 122.49 131.736 122.616 130.977 123.09ZM134.518 125.81C135.088 126.411 135.246 126.79 135.119 127.328C134.677 128.75 133.412 129.193 132.179 128.308C130.819 127.359 131.641 125.241 133.475 125.051C133.601 125.019 134.076 125.367 134.518 125.81Z" fill="black"/>
<path d="M174.137 83.3762C171.07 84.2616 168.351 86.475 166.833 89.3525C166.232 90.5224 166.105 91.1865 166.105 94.0323C166.105 97.0363 166.2 97.5106 166.959 98.9651C167.434 99.8821 168.635 101.337 169.615 102.19C175.275 107.218 184.129 105.416 187.481 98.5224C188.082 97.3209 188.208 96.4987 188.208 94.1904C188.24 91.7556 188.113 91.0916 187.418 89.5738C185.584 85.6529 182.264 83.4078 177.963 83.1232C176.509 83.0284 175.054 83.1232 174.137 83.3762ZM179.671 86.1272C182.295 87.139 183.686 88.309 184.73 90.4276C187.196 95.4553 184.351 101.02 178.659 102.222C173.758 103.266 168.856 99.5343 168.603 94.5383C168.414 90.396 171.165 86.8228 175.339 85.8426C177.204 85.3999 177.805 85.4315 179.671 86.1272Z" fill="black"/>
<path d="M173.821 90.8379C172.651 92.0079 172.588 92.166 172.588 94.0316C172.588 95.8972 172.651 96.0553 173.821 97.2253C174.991 98.3953 175.118 98.4585 177.11 98.4585C179.133 98.4585 179.165 98.4269 180.461 97.0356C181.6 95.8024 181.758 95.4545 181.758 94.0949C181.758 92.5138 181.284 91.5968 179.861 90.332C179.228 89.7628 178.691 89.6364 177.046 89.6047C175.149 89.6047 174.991 89.668 173.821 90.8379ZM178.88 93.2727C179.291 94.2213 178.817 95.3913 177.837 95.8656C176.983 96.2451 175.56 95.581 175.276 94.664C174.548 92.3241 177.869 91.0593 178.88 93.2727Z" fill="black"/>
<path d="M160.573 110.664C159.372 111.771 159.309 111.897 159.309 113.731C159.309 115.534 159.372 115.692 160.573 116.862L161.87 118.063H176.953C188.368 118.063 192.226 117.969 192.826 117.652C195.609 116.229 195.767 111.803 193.048 110.158C192.067 109.558 191.34 109.526 176.953 109.526H161.838L160.573 110.664ZM191.625 112.593C191.941 112.878 192.194 113.51 192.194 113.984C192.194 114.743 191.973 114.996 191.024 115.376C189.981 115.818 188.02 115.882 176.51 115.787C163.894 115.692 163.135 115.66 162.502 115.091C161.649 114.301 161.649 113.162 162.534 112.562C163.166 112.119 165.064 112.056 177.143 112.056C189.633 112.056 191.087 112.119 191.625 112.593Z" fill="black"/>
<path d="M162.249 122.712C161.901 122.775 161.079 123.345 160.447 123.945C159.403 124.957 159.309 125.179 159.309 126.918C159.309 128.594 159.403 128.878 160.384 129.89C161.396 130.997 161.522 131.028 163.672 131.028C165.822 131.028 165.917 130.997 166.866 129.922C167.72 128.941 167.846 128.562 167.846 126.981C167.846 124.831 167.372 124.009 165.633 123.123C164.431 122.522 163.704 122.428 162.249 122.712ZM164.716 125.653C165.886 126.285 165 128.815 163.577 128.815C162.945 128.815 161.838 127.677 161.838 127.013C161.838 125.716 163.419 124.957 164.716 125.653Z" fill="black"/>
<path d="M175.626 122.807C172.527 123.756 171.61 127.93 174.045 130.048L175.152 131.028H184.005H192.891L193.776 130.143C196.021 127.898 195.104 123.977 192.1 122.839C191.025 122.428 176.986 122.428 175.626 122.807ZM191.088 125.463C192.005 125.843 192.195 126.096 192.195 126.886C192.195 128.688 191.594 128.815 183.816 128.815C178.029 128.815 176.733 128.72 176.132 128.309C174.962 127.487 175.405 125.59 176.859 125.242C177.207 125.147 180.306 125.084 183.752 125.052C188.559 125.02 190.266 125.115 191.088 125.463Z" fill="black"/>
<path d="M161.649 136.213C160.036 136.909 159.309 138.142 159.309 140.134C159.309 141.715 159.403 141.968 160.542 143.075L161.775 144.308H170.249C176.573 144.276 178.945 144.182 179.483 143.865C182.265 142.348 182.012 137.446 179.071 136.213C177.554 135.581 163.103 135.581 161.649 136.213ZM178.281 138.933C179.04 139.692 179.103 140.609 178.407 141.273C177.996 141.715 176.826 141.778 170.471 141.778C163.957 141.778 162.913 141.715 162.407 141.241C161.649 140.577 161.68 139.723 162.471 138.933C163.071 138.332 163.514 138.3 170.376 138.3C177.237 138.3 177.68 138.332 178.281 138.933Z" fill="black"/>
<path d="M104.447 152.435C102.802 152.846 102.012 154.238 102.012 156.704C102.012 158.823 102.676 159.834 104.51 160.625C106.122 161.321 140.399 161.257 142.043 160.593C145.205 159.265 145.3 154.269 142.233 152.688C141.443 152.277 138.66 152.214 123.197 152.245C113.237 152.277 104.794 152.372 104.447 152.435ZM141.284 155.376C142.138 156.23 142.075 157.115 141.095 157.874C140.273 158.538 139.956 158.538 123.197 158.538C112.194 158.538 105.933 158.411 105.553 158.222C104.225 157.495 104.13 155.819 105.363 154.996C105.553 154.87 113.585 154.744 123.197 154.744C140.241 154.744 140.652 154.744 141.284 155.376Z" fill="black"/>
<path d="M151.559 152.498C151.211 152.656 150.547 153.162 150.073 153.637C149.282 154.427 149.188 154.743 149.188 156.577C149.188 158.506 149.251 158.696 150.294 159.645C152.223 161.479 155.069 161.415 156.903 159.518C158.674 157.684 158.199 154.143 156.018 152.815C155.006 152.182 152.729 152.024 151.559 152.498ZM154.974 155.724C155.67 156.672 155.385 157.621 154.247 158.222C152.476 159.17 150.769 156.388 152.413 155.249C153.361 154.554 154.215 154.712 154.974 155.724Z" fill="black"/>
<path d="M164.776 152.688C162.467 153.7 161.677 157.241 163.321 159.202C164.902 161.067 164.871 161.067 180.491 161.067C195.859 161.067 195.985 161.067 197.535 159.391C198.135 158.727 198.262 158.222 198.262 156.704C198.262 154.712 198.009 153.984 196.934 153.004C196.27 152.403 195.701 152.372 180.997 152.308C168.412 152.245 165.598 152.308 164.776 152.688ZM194.91 154.996C196.143 155.818 196.048 157.494 194.72 158.222C194.341 158.411 189.124 158.538 180.333 158.538H166.547L165.788 157.747C164.839 156.83 164.807 156.641 165.661 155.565L166.294 154.743H180.428C188.207 154.743 194.72 154.87 194.91 154.996Z" fill="black"/>
<path d="M104.098 165.936C102.58 166.6 102.074 167.581 102.074 169.762C102.074 171.881 102.106 171.944 103.592 173.177L104.667 174.031H150.137H195.608L196.683 173.177C198.169 171.944 198.201 171.881 198.201 169.762C198.201 167.549 197.695 166.6 196.114 165.936C194.564 165.272 105.584 165.304 104.098 165.936ZM195.102 168.561C195.892 169.257 195.829 170.427 194.975 170.996C194.343 171.438 189.568 171.502 150.137 171.502C110.707 171.502 105.932 171.438 105.3 170.996C104.477 170.427 104.414 169.415 105.141 168.593C105.616 168.055 107.45 168.023 150.074 168.023C190.991 168.023 194.564 168.055 195.102 168.561Z" fill="black"/>
<path d="M103.149 179.85L102.074 180.925V196.008V211.091L103.307 212.356L104.572 213.589L112.098 213.494C119.624 213.399 119.624 213.399 121.426 212.514C123.481 211.502 125.663 209.257 126.77 207.012C128.13 204.198 127.687 198.917 125.884 196.767C125.537 196.356 125.632 195.945 126.485 194.237C127.434 192.435 127.529 191.929 127.529 189.526C127.529 187.091 127.434 186.617 126.454 184.688C125.252 182.285 123.608 180.672 121.205 179.534C119.687 178.806 119.371 178.775 111.94 178.775H104.224L103.149 179.85ZM118.517 181.494C121.869 182.474 123.355 183.96 124.525 187.407C125.252 189.557 125.252 189.589 124.683 191.36C124.398 192.34 123.798 193.605 123.386 194.142C122.438 195.375 122.438 196.703 123.386 198C123.798 198.569 124.367 199.802 124.683 200.783C125.22 202.458 125.22 202.648 124.683 204.577C123.956 207.265 122.027 209.383 119.307 210.427C117.6 211.091 116.873 211.154 111.687 211.154C106.469 211.186 105.869 211.122 105.268 210.585C104.604 209.984 104.604 209.826 104.604 196.198C104.604 188.609 104.73 182.253 104.857 182.063C105.458 181.178 106.533 181.02 111.592 180.988C115.45 180.988 117.252 181.115 118.517 181.494Z" fill="black"/>
<path d="M108.938 185.352C108.495 185.826 108.4 186.648 108.4 189.589C108.4 194.332 108.337 194.269 113.049 194.269C117.602 194.269 118.361 194.079 119.815 192.687C120.985 191.581 121.049 191.391 121.049 189.684C121.049 188.197 120.891 187.628 120.227 186.743C118.962 185.099 117.855 184.782 113.365 184.782C109.981 184.782 109.381 184.846 108.938 185.352ZM117.254 187.786C118.266 188.292 118.677 189.178 118.361 190.158C118.013 191.265 116.559 191.739 113.618 191.739H110.93V189.525V187.312H113.618C115.42 187.312 116.653 187.47 117.254 187.786Z" fill="black"/>
<path d="M108.778 198.443C108.177 199.043 108.272 206.411 108.841 206.917C109.189 207.17 110.675 207.265 113.932 207.17L118.549 207.075L119.814 205.747C120.921 204.545 121.047 204.229 121.047 202.775C121.047 200.814 120.004 199.202 118.328 198.506C116.968 197.937 109.347 197.874 108.778 198.443ZM117.727 201.383C118.17 201.794 118.517 202.364 118.517 202.648C118.517 202.933 118.17 203.502 117.727 203.913C117.031 204.64 116.715 204.704 113.932 204.704H110.928V202.648V200.593H113.932C116.715 200.593 117.031 200.656 117.727 201.383Z" fill="black"/>
<path d="M133.634 179.691L132.59 180.608L132.432 195.122C132.337 203.09 132.369 210.047 132.527 210.616C132.654 211.154 133.254 212.039 133.887 212.577C135.721 214.189 138.693 213.81 140.306 211.786C140.97 210.964 140.97 210.679 140.97 196.007V181.051L139.705 179.913C138.535 178.869 138.282 178.774 136.543 178.774C134.899 178.774 134.519 178.901 133.634 179.691ZM138.472 182.853C138.693 183.581 138.756 188.482 138.693 196.893L138.598 209.826L137.839 210.426C136.859 211.217 136.069 211.185 135.468 210.332C135.025 209.699 134.962 207.834 134.962 196.007C134.962 188.545 135.088 182.252 135.215 182.063C136.163 180.671 137.934 181.083 138.472 182.853Z" fill="black"/>
<path d="M146.946 180.008L145.713 181.241V195.818C145.713 211.945 145.681 211.628 147.705 212.893C149.824 214.19 152.638 213.589 153.903 211.565C154.535 210.522 154.567 210.047 154.567 201.984V193.51L156.084 194.964C157.95 196.767 158.614 197.115 160.258 197.115C161.903 197.115 162.567 196.767 164.464 194.964L165.95 193.51V202.016C165.95 209.921 166.013 210.617 166.582 211.565C168.29 214.348 172.843 214.221 174.33 211.344C174.741 210.585 174.804 208.119 174.804 195.881V181.336L173.602 180.04C172.401 178.806 172.306 178.775 170.345 178.775H168.322L164.369 182.727L160.416 186.68L156.243 182.727L152.037 178.775H150.108C148.274 178.775 148.084 178.838 146.946 180.008ZM152.575 182.854C153.776 183.866 155.8 185.794 157.096 187.123C158.835 188.893 159.658 189.526 160.29 189.526C160.922 189.526 162.156 188.514 165.539 185.289C169.112 181.874 170.124 181.051 170.662 181.21C172.274 181.621 172.274 181.747 172.274 195.945C172.274 205.304 172.179 209.383 171.926 209.858C171.167 211.249 170.377 211.376 169.27 210.237L168.48 209.478V200.087C168.48 191.771 168.416 190.601 167.942 190.095C167.057 189.083 166.266 189.431 163.547 192.055C162.092 193.447 160.764 194.585 160.575 194.585C159.816 194.585 158.393 193.573 156.464 191.613C154.345 189.462 153.618 189.146 152.606 190.063C152.069 190.538 152.037 191.265 152.037 200.182C152.037 209.352 152.005 209.794 151.405 210.395C150.582 211.217 149.887 211.186 148.97 210.332L148.243 209.668V196.103V182.538L149.033 181.779C149.444 181.336 149.95 180.988 150.108 180.988C150.298 180.988 151.405 181.842 152.575 182.854Z" fill="black"/>
<path d="M153.998 222.095C152.796 222.822 152.037 224.372 152.037 226.079C152.037 227.028 152.29 227.502 153.428 228.609C154.725 229.937 154.883 230 156.59 230C158.171 230 158.488 229.874 159.531 228.957C160.511 228.04 160.701 227.66 160.796 226.174C160.954 224.15 160.511 223.202 159.025 222.19C157.634 221.241 155.452 221.209 153.998 222.095ZM157.76 224.656C159.057 225.953 157.16 228.261 155.642 227.217C154.504 226.458 154.63 224.53 155.8 224.213C156.812 223.929 157.096 223.992 157.76 224.656Z" fill="black"/>
<defs>
<linearGradient id="paint0_linear_77_61" x1="150" y1="2.23517e-06" x2="2.86698e-06" y2="362" gradientUnits="userSpaceOnUse">
<stop offset="0.339459" stop-color="#EECE47"/>
<stop offset="1"/>
</linearGradient>
</defs>
</svg>
