<svg width="300" height="300" viewBox="0 0 300 300" fill="none" xmlns="http://www.w3.org/2000/svg">
<path d="M23.0962 76.732L150 3.4641L276.904 76.732V223.268L150 296.536L23.0962 223.268V76.732Z" fill="white" stroke="url(#paint0_linear_77_89)" stroke-width="6"/>
<path d="M198.583 75.3797C197.013 75.9321 195.442 77.2986 194.687 78.7814C194.309 79.5083 192.099 84.8581 189.773 90.7021C186.633 98.5233 185.528 101.605 185.528 102.507V103.757H152.412H119.296L118.801 101.692C116.94 94.1911 110.806 87.7365 103.246 85.3814C100.106 84.422 94.4656 84.422 91.3255 85.4105C83.1846 87.94 77.1951 94.4528 75.4797 102.536C74.8401 105.443 74.8401 204.123 75.4797 207.031C76.9626 214.038 81.789 219.998 88.4762 223.08C92.8956 225.115 88.0401 224.999 159.739 224.999C209.631 224.999 224.459 224.912 224.721 224.65C225.215 224.156 225.215 104.6 224.721 104.106C224.488 103.873 223.005 103.757 219.924 103.757H215.475V102.594C215.475 101.78 214.138 98.0871 210.91 90.0334C206.52 78.9559 206.316 78.5488 204.892 77.1242C202.886 75.0889 200.909 74.5365 198.583 75.3797ZM202.275 77.2696C202.915 77.5603 203.729 78.1418 204.049 78.5779C204.398 78.985 206.694 84.451 209.195 90.6731C212.829 99.8025 213.731 102.274 213.731 103.408C213.731 104.164 213.876 104.949 214.079 105.152C214.312 105.385 215.795 105.501 218.877 105.501H223.325V164.378V223.254H159.506C88.3599 223.254 93.448 223.4 88.8542 221.248C83.1555 218.544 79.5502 214.357 77.6022 208.135L76.9335 205.955V154.783V103.611L77.6022 101.431C79.8991 94.162 84.6092 89.4228 91.907 87.1259C94.9599 86.1955 99.5537 86.1955 102.665 87.155C106.619 88.3471 110.37 90.7894 112.87 93.7841C114.527 95.7321 116.272 99.3664 117.028 102.274C117.377 103.67 117.755 104.949 117.871 105.123C118.22 105.647 186.4 105.676 186.924 105.152C187.127 104.949 187.272 104.135 187.272 103.321C187.272 102.129 188.028 99.977 191.663 90.8766C194.076 84.8581 196.344 79.4792 196.693 78.9559C197.332 77.9673 199.484 76.7171 200.502 76.7171C200.821 76.7171 201.606 76.9788 202.275 77.2696Z" fill="black"/>
<path d="M198.845 80.1185C198.06 80.9907 191.053 98.203 191.053 99.2788C191.053 100.529 191.314 100.558 200.502 100.558C209.602 100.558 209.951 100.5 209.951 99.337C209.951 98.4066 202.741 80.7291 202.072 80.0313C201.171 79.0427 199.804 79.1009 198.845 80.1185ZM203.729 89.8004C205.416 94.0453 206.899 97.7378 206.957 97.9995C207.102 98.4938 206.666 98.5229 200.531 98.5229C196.926 98.5229 193.96 98.4066 193.96 98.2903C193.96 98.1449 195.356 94.5978 197.042 90.3528C198.728 86.137 200.182 82.5026 200.269 82.2991C200.357 82.0956 200.473 81.9793 200.531 82.0084C200.589 82.0665 202.014 85.5846 203.729 89.8004Z" fill="black"/>
<path d="M92.0532 89.4807C91.0937 89.7424 89.5818 90.353 88.7096 90.8181C86.529 91.9811 82.3713 96.1679 81.2373 98.3776C79.2893 102.099 79.4056 99.2499 79.4056 146.555C79.4056 179.496 79.4928 189.498 79.7545 189.76C80.4523 190.458 81.2664 190.08 83.3307 188.103C87.4303 184.236 92.5765 182.346 98.2752 182.636C103.625 182.898 108.393 185.079 112.115 188.917C113.249 190.109 114.179 190.399 114.819 189.76C115.08 189.498 115.168 179.555 115.168 146.787C115.168 99.5115 115.284 102.361 113.191 98.4067C111.097 94.4234 107.405 91.2543 103.131 89.7424C101.037 89.0155 100.398 88.9283 97.2866 88.9574C94.9025 88.9574 93.2452 89.1318 92.0532 89.4807ZM101.502 91.1089C105.835 92.2428 109.585 95.2375 111.504 99.0173C113.51 103.059 113.423 100.384 113.423 145.682V186.62H112.813C112.493 186.62 111.679 186.184 111.01 185.631C109.091 184.09 106.969 182.898 104.352 181.881C102.026 181.008 101.764 180.979 97.432 180.95C93.4778 180.95 92.6928 181.037 90.9193 181.619C88.099 182.578 85.8021 183.77 83.9122 185.311C82.8365 186.184 82.0514 186.62 81.6444 186.562L81.0047 186.474V145.333C81.0047 106.257 81.0338 104.105 81.5281 102.477C83.3016 96.7494 87.4593 92.5626 92.8091 91.138C94.8734 90.5855 99.4673 90.5565 101.502 91.1089Z" fill="black"/>
<path d="M190.21 103.583C189.977 103.873 189.919 110.968 189.948 129.808L190.036 155.656L194.222 155.743C197.043 155.801 198.525 155.714 198.787 155.481C199.136 155.19 199.194 151.033 199.194 129.605C199.194 106.81 199.136 104.048 198.729 103.641C198.118 103.001 190.733 102.943 190.21 103.583ZM196.868 129.634V153.766H194.397H191.925V129.634V105.501H194.397H196.868V129.634Z" fill="black"/>
<path d="M202.276 103.64C201.869 104.047 201.811 106.809 201.811 129.604C201.811 149.055 201.898 155.19 202.159 155.452C202.654 155.946 210.271 155.946 210.766 155.452C211.027 155.19 211.114 149.026 211.114 129.43C211.114 104.367 211.114 103.757 210.562 103.466C210.242 103.32 208.352 103.175 206.346 103.175C203.439 103.175 202.625 103.262 202.276 103.64ZM209.079 129.633V153.765H206.608H204.137V129.633V105.501H206.608H209.079V129.633Z" fill="black"/>
<path d="M118.133 108.467C117.668 108.932 117.668 114.282 118.133 114.747C118.366 114.98 119.849 115.096 122.931 115.096H127.379V120.591C127.379 124.632 127.466 126.144 127.757 126.348C127.931 126.522 128.833 126.929 129.705 127.249C130.577 127.569 132.06 128.18 132.991 128.587C135.753 129.837 135.782 129.808 139.939 125.65L143.661 121.928L151.279 129.575L158.925 137.193L155.175 140.943C151.627 144.49 151.453 144.723 151.569 145.653C151.715 146.555 153.372 150.887 154.215 152.602L154.593 153.329L160.175 153.416L165.758 153.475V164.378V175.281H160.263C156.163 175.281 154.68 175.368 154.506 175.63C153.983 176.473 151.744 182.201 151.598 183.102C151.453 184.032 151.627 184.236 155.175 187.812L158.896 191.563L151.279 199.18L143.661 206.827L139.91 203.076C136.334 199.529 136.131 199.355 135.2 199.5C134.299 199.616 128.629 201.855 127.757 202.408C127.466 202.582 127.379 204.065 127.379 208.164V213.66H121.041H114.732L112.318 216.247C109.934 218.864 109.498 219.794 110.283 220.579C110.545 220.841 123.163 220.928 165.322 220.928C217.947 220.928 220.07 220.899 220.506 220.405C220.971 219.911 221 215.608 221 164.349C221 121.55 220.913 108.728 220.651 108.467C220.419 108.234 219.256 108.118 217.366 108.118C215.476 108.118 214.313 108.234 214.08 108.467C213.819 108.728 213.731 115.968 213.731 139.228C213.731 172.693 213.789 171.297 211.958 173.158C210.097 175.077 209.835 175.135 200.502 175.135H192.041L190.617 174.379C189.599 173.856 188.901 173.245 188.291 172.228L187.419 170.832L187.331 139.868C187.273 117.713 187.186 108.787 186.953 108.496C186.488 107.972 118.686 107.914 118.133 108.467ZM184.947 140.187C184.947 174.234 184.802 172.199 187.215 174.786C189.57 177.316 189.512 177.316 200.444 177.316C208.033 177.316 210.184 177.229 210.969 176.909C212.423 176.298 214.604 174.147 215.301 172.664C215.912 171.356 215.912 171.123 215.999 140.74L216.057 110.153H217.366H218.674V164.378V218.602H166.165H113.627L114.644 217.352L115.691 216.131L122.146 216.044C126.274 216.015 128.775 215.869 129.007 215.666C129.298 215.433 129.414 213.95 129.472 209.822L129.56 204.326L132.409 203.134L135.287 201.971L139.125 205.78C141.393 208.019 143.225 209.589 143.545 209.589C143.894 209.589 147.412 206.275 152.761 200.925C159.478 194.208 161.397 192.115 161.397 191.563C161.397 191.01 160.495 189.905 157.762 187.201C155.756 185.195 154.128 183.451 154.128 183.334C154.128 183.189 154.622 181.852 155.204 180.34L156.279 177.607H161.716C166.165 177.607 167.212 177.519 167.502 177.171C167.968 176.589 167.938 152.399 167.444 151.817C167.241 151.556 165.671 151.439 161.775 151.381L156.367 151.294L155.262 148.532C154.622 147.02 154.128 145.653 154.128 145.479C154.128 145.305 155.756 143.56 157.762 141.554C160.495 138.821 161.397 137.745 161.397 137.193C161.397 136.611 159.536 134.605 152.732 127.802C147.964 123.062 143.952 119.166 143.777 119.166C143.196 119.166 142.004 120.184 138.689 123.469C134.851 127.249 135.665 127.017 131.595 125.33L129.56 124.487L129.472 119.021C129.443 115.59 129.269 113.409 129.094 113.148C128.833 112.857 127.641 112.77 124.297 112.77H119.82V111.461V110.153H152.383H184.947V140.187Z" fill="black"/>
<path d="M118.133 118.062C117.581 118.614 117.639 138.443 118.191 138.908C118.424 139.083 119.354 139.374 120.255 139.519C123.919 140.101 127.844 141.7 131.071 143.909C137.002 147.951 141.073 155.394 141.538 162.924C142.265 175.572 133.63 186.562 120.982 189.092C119.616 189.382 118.366 189.731 118.191 189.877C117.958 190.051 117.813 192.552 117.697 197.901C117.61 203.891 117.464 206.042 117.086 207.351C116.534 209.357 116.505 210.229 116.97 210.694C117.464 211.189 123.919 211.189 124.413 210.694C124.646 210.462 124.762 208.892 124.762 205.548V200.722L127.757 199.762C129.385 199.239 131.885 198.221 133.281 197.523C134.706 196.796 135.985 196.215 136.159 196.215C136.334 196.215 137.933 197.669 139.736 199.413C142.091 201.739 143.166 202.611 143.69 202.611C144.707 202.611 154.709 192.61 154.709 191.563C154.709 191.011 153.866 189.964 151.395 187.522L148.051 184.207L149.447 181.416C150.871 178.596 151.802 176.182 152.383 173.885L152.703 172.664H157.558C160.96 172.664 162.559 172.548 162.792 172.315C163.286 171.821 163.286 156.935 162.792 156.441C162.559 156.208 160.989 156.092 157.617 156.092H152.79L151.976 153.446C151.511 151.963 150.435 149.375 149.621 147.66L148.08 144.549L151.395 141.234C153.866 138.763 154.709 137.745 154.709 137.193C154.709 136.146 144.707 126.145 143.661 126.145C143.108 126.145 142.12 126.959 139.736 129.343C137.991 131.087 136.392 132.541 136.188 132.541C136.014 132.541 134.502 131.872 132.845 131.058C131.188 130.273 128.716 129.256 127.321 128.849L124.762 128.064V123.237C124.762 119.864 124.646 118.294 124.413 118.062C124.18 117.829 123.047 117.713 121.273 117.713C119.499 117.713 118.366 117.829 118.133 118.062ZM122.378 124.72C122.436 128.122 122.552 129.663 122.814 129.866C122.988 130.012 124.529 130.564 126.158 131.058C127.815 131.582 130.693 132.774 132.554 133.733C134.444 134.664 136.159 135.449 136.392 135.449C136.654 135.449 138.34 133.937 140.172 132.105L143.515 128.761L147.644 132.89C149.941 135.187 151.802 137.164 151.802 137.338C151.802 137.513 150.377 139.083 148.603 140.827C146.859 142.572 145.405 144.2 145.405 144.433C145.405 144.636 146.248 146.555 147.295 148.649C148.313 150.742 149.505 153.62 149.883 155.045C150.29 156.441 150.784 157.807 150.958 158.011C151.22 158.33 152.354 158.418 156.047 158.418H160.815V164.349V170.309L156.192 170.397C150.842 170.484 150.668 170.571 150.086 173.013C149.621 175.136 147.906 179.264 146.568 181.678C145.928 182.782 145.405 183.916 145.405 184.207C145.405 184.498 146.859 186.184 148.603 187.929C150.377 189.673 151.802 191.33 151.802 191.563C151.802 191.825 149.97 193.831 147.731 196.07L143.632 200.111L140.23 196.709C138.34 194.848 136.595 193.307 136.334 193.307C136.072 193.307 134.967 193.831 133.862 194.441C131.333 195.866 129.094 196.826 125.78 197.843C124.355 198.279 122.988 198.744 122.814 198.919C122.523 199.122 122.436 200.518 122.436 204.094V209.008H120.808C119.238 209.008 119.18 208.979 119.383 208.339C119.529 207.99 119.674 204.094 119.732 199.675L119.877 191.621L121.506 191.447C123.744 191.185 127.611 189.789 130.257 188.307C133.194 186.62 137.671 182.317 139.619 179.293C142.352 175.019 143.602 171.123 143.864 165.919C144.213 159.203 142.352 152.864 138.602 148.009C136.654 145.45 132.961 142.165 130.373 140.624C127.873 139.141 123.541 137.542 121.244 137.28L119.819 137.106V128.616C119.819 123.964 119.906 120.039 120.023 119.923C120.139 119.806 120.692 119.748 121.273 119.806L122.291 119.894L122.378 124.72Z" fill="black"/>
<path d="M118.134 142.194C117.901 142.427 117.785 143.56 117.785 145.334C117.785 148.503 117.988 148.881 119.82 149.259C122.553 149.812 126.274 152.021 128.106 154.115C130.345 156.731 132.031 161.122 132.031 164.378C132.031 167.14 130.49 171.937 129.298 172.926C128.862 173.304 128.717 173.275 128.106 172.635L127.408 171.937L128.339 170.048C129.24 168.245 129.269 168.071 129.269 164.378C129.269 160.918 129.211 160.453 128.513 158.97C127.437 156.702 124.559 153.708 122.378 152.603C120.372 151.614 118.25 151.411 117.959 152.196C117.872 152.457 117.785 158.04 117.785 164.669C117.785 178.479 117.639 177.694 120.285 176.967L121.855 176.531L122.466 177.345C122.785 177.811 122.989 178.305 122.902 178.421C122.815 178.567 122 178.915 121.07 179.177C117.814 180.137 117.93 179.962 117.93 183.393C117.93 187.115 117.988 187.202 121.012 186.678C128.397 185.399 135.288 179.41 138.05 171.792C138.777 169.728 138.835 169.321 138.864 164.523C138.864 159.668 138.835 159.319 138.05 157.109C136.829 153.62 135.142 151.033 132.322 148.241C129.356 145.305 126.594 143.648 122.902 142.601C120.082 141.787 118.657 141.671 118.134 142.194ZM122.815 145.072C131.799 148.067 138.05 157.778 136.712 166.704C135.753 173.13 132.206 178.654 127.059 181.707C124.821 183.044 121.652 184.294 120.518 184.294C119.849 184.294 119.791 184.207 119.878 183.248C119.965 182.201 120.023 182.172 122.175 181.416C124.966 180.427 125.926 179.817 125.926 179.003C125.926 178.247 124.152 175.048 123.338 174.293C122.931 173.915 122.495 173.798 121.942 173.915C119.733 174.351 119.965 175.426 119.878 164.552C119.849 159.086 119.936 154.696 120.082 154.551C120.227 154.405 120.837 154.551 121.564 154.929C125.286 156.819 127.845 161.878 127.118 165.89C126.769 167.663 125.751 170.164 125.17 170.658C124.937 170.833 124.763 171.414 124.763 171.937C124.763 172.752 125.053 173.13 126.623 174.525C127.845 175.572 128.746 176.153 129.211 176.153C130.519 176.153 132.584 173.042 133.718 169.35C134.299 167.402 134.357 161.703 133.805 159.726C132.322 154.493 128.281 149.899 123.367 147.834C122.378 147.427 121.332 147.079 121.041 147.079C120.285 147.079 119.82 146.497 119.82 145.625C119.82 144.258 120.169 144.2 122.815 145.072Z" fill="black"/>
<path d="M190.18 158.883C189.686 159.464 189.657 169.931 190.151 170.832C190.326 171.181 190.82 171.734 191.227 172.053C191.983 172.635 192.332 172.664 200.56 172.664H209.137L210.126 171.676L211.114 170.687V164.901C211.114 160.802 211.027 159.028 210.765 158.766C210.504 158.505 207.829 158.417 200.473 158.417C191.838 158.417 190.5 158.476 190.18 158.883ZM209.021 165.046C208.963 168.187 208.817 169.524 208.527 169.844C208.178 170.28 207.247 170.338 200.473 170.338C192.914 170.338 192.826 170.338 192.39 169.698C192.012 169.175 191.925 168.187 191.925 164.901V160.743H200.531H209.108L209.021 165.046Z" fill="black"/>
<path d="M92.5165 185.457C86.5561 187.027 81.4099 192.203 79.8689 198.134C79.2874 200.431 79.2583 205.141 79.8398 207.409C80.6248 210.549 81.9623 212.729 84.6372 215.404C88.4751 219.242 91.8187 220.638 97.2266 220.638C102.402 220.638 106.24 219.097 109.816 215.55C113.654 211.77 115.369 207.35 115.108 201.884C114.875 197.087 113.276 193.511 109.903 190.109C105.338 185.544 98.8257 183.829 92.5165 185.457ZM100.774 187.638C106.531 189.091 110.892 193.453 112.404 199.268C114.846 208.659 107.054 218.428 97.1684 218.37C88.6204 218.312 81.6134 211.188 81.6715 202.582C81.7006 195.808 86.7015 189.528 93.5341 187.638C95.4821 187.114 98.7094 187.114 100.774 187.638Z" fill="black"/>
<path d="M92.6051 190.516C90.5117 191.301 89.6395 191.883 87.6333 193.947C81.7311 199.995 83.5919 210.636 91.2386 214.503C92.7214 215.23 95.5998 215.986 97.0536 215.986C97.984 215.986 98.3038 215.085 98.3038 212.381C98.3038 209.299 98.0712 208.921 96.1232 208.63C93.5064 208.223 91.3258 205.577 91.3258 202.815C91.3258 200.082 93.5355 197.407 96.2395 196.913C98.1875 196.535 101.095 197.785 102.229 199.5C102.461 199.849 102.81 200.838 103.043 201.681C103.247 202.495 103.566 203.338 103.77 203.542C104.264 204.036 108.48 204.181 109.352 203.716C110.021 203.338 110.079 203.164 110.079 201.303C110.079 199.617 109.905 198.919 109.149 197.32C107.608 194.034 104.7 191.418 101.386 190.313C99.2051 189.557 94.873 189.673 92.6051 190.516ZM101.909 193.249C102.869 193.715 104.177 194.616 104.817 195.226C105.98 196.389 107.462 199.152 107.782 200.78C107.957 201.739 107.957 201.739 106.794 201.739C105.631 201.739 105.573 201.71 105.253 200.518C104.235 196.68 100.455 194.18 96.2976 194.558C93.3901 194.819 90.8316 196.68 89.6104 199.413C88.7672 201.245 88.7672 204.589 89.6104 206.304C90.4536 208.048 93.0994 210.374 94.6985 210.781C95.9487 211.101 95.9778 211.159 95.9778 212.235C95.9778 213.224 95.8906 213.369 95.3091 213.369C94.2042 213.369 90.6571 211.479 89.5523 210.287C88.1567 208.804 87.0518 206.653 86.6448 204.559C85.7435 200.198 88.4765 195.023 92.6924 193.104C95.7452 191.708 98.7399 191.767 101.909 193.249Z" fill="black"/>
<defs>
<linearGradient id="paint0_linear_77_89" x1="47.5" y1="231" x2="200" y2="-55" gradientUnits="userSpaceOnUse">
<stop offset="0.348958" stop-color="#EECE47"/>
<stop offset="0.864583" stop-color="#4B4116"/>
</linearGradient>
</defs>
</svg>
