<svg width="300" height="300" viewBox="0 0 300 300" fill="none" xmlns="http://www.w3.org/2000/svg">
<path d="M23.0962 76.732L150 3.4641L276.904 76.732V223.268L150 296.536L23.0962 223.268V76.732Z" fill="white" stroke="url(#paint0_linear_77_61)" stroke-width="6"/>
<path d="M169.255 75.0923C164.997 75.6878 163.509 75.9557 160.978 76.581C157.703 77.3849 152.403 79.469 149.456 81.0767C136.474 88.2521 126.828 101.084 123.851 115.167C123.136 118.502 122.57 123.682 122.719 125.498C122.809 127.017 123.493 127.672 124.387 127.136C124.803 126.868 124.922 126.183 125.101 123.563C125.935 111.088 130.758 100.429 139.452 91.7058C143.709 87.478 146.925 85.1259 151.897 82.6249C160.769 78.159 170.446 76.4619 179.824 77.7124C191.138 79.2308 200.308 83.7563 208.287 91.7058C215.493 98.9407 219.81 107.069 221.864 117.221C222.817 122.074 222.817 130.143 221.864 134.996C218.023 154.17 204.477 168.61 185.779 173.433C183.07 174.118 182.325 174.446 182.087 174.952C181.879 175.398 181.938 175.696 182.295 176.053C182.742 176.5 183.04 176.53 184.856 176.202C191.287 175.101 199.147 171.558 205.102 167.062C214.867 159.648 221.924 148.721 224.454 137.05C224.99 134.549 225.08 133.18 225.08 126.243C225.08 119.514 224.99 117.906 224.484 115.405C223.174 108.915 219.691 101.233 215.701 95.9038C207.603 85.0961 196.229 77.9803 183.248 75.658C180.688 75.1816 171.25 74.8244 169.255 75.0923Z" fill="black"/>
<path d="M168.271 84.7976C168.033 85.0358 167.914 86.5245 167.914 89.5316C167.914 94.3251 167.944 94.2357 165.979 94.861C161.9 96.1412 157.463 99.982 155.617 103.823C154.099 106.979 153.801 108.318 153.801 111.832C153.801 115.345 154.099 116.685 155.617 119.841C156.392 121.508 157.255 122.639 158.952 124.336C162.852 128.267 166.723 129.696 173.452 129.696C178.602 129.696 180.24 130.38 181.49 133.09C182.651 135.561 182.264 137.973 180.419 139.819C178.721 141.516 177.977 141.605 167.556 141.605C158.327 141.605 158.178 141.605 156.868 142.29C156.153 142.677 155.171 143.57 154.665 144.255C153.891 145.356 153.771 145.773 153.771 147.56C153.771 149.346 153.891 149.763 154.665 150.864C155.171 151.549 156.153 152.442 156.868 152.829C158.089 153.455 158.535 153.514 162.703 153.514C165.8 153.514 167.318 153.633 167.556 153.871C167.795 154.11 167.914 155.539 167.914 158.278C167.914 161.017 168.033 162.446 168.271 162.684C168.777 163.191 178.96 163.191 179.466 162.684C179.704 162.446 179.823 160.958 179.823 157.95C179.823 154.824 179.942 153.514 180.21 153.306C180.389 153.127 181.252 152.77 182.056 152.502C189.41 150.12 194.501 142.409 194.025 134.459C193.668 128.773 190.244 123.146 185.361 120.317C182.145 118.441 180.389 118.025 174.91 117.816C170.504 117.637 169.7 117.518 168.599 116.953C167.11 116.179 166.276 115.077 165.77 113.201C165.085 110.671 166.395 107.753 168.718 106.592C169.73 106.085 170.832 106.026 180.031 105.877L190.184 105.728L191.464 104.835C195.186 102.215 194.888 96.7665 190.869 94.6526C189.648 94.0273 189.202 93.9678 185.033 93.9678C181.937 93.9678 180.419 93.8487 180.18 93.6105C179.942 93.3723 179.823 91.9432 179.823 89.2041C179.823 86.4649 179.704 85.0358 179.466 84.7976C179.228 84.5594 177.56 84.4404 173.868 84.4404C170.177 84.4404 168.509 84.5594 168.271 84.7976ZM177.084 87.1795C177.322 87.4177 177.441 88.8468 177.441 91.5859C177.441 94.3251 177.56 95.7542 177.798 95.9924C178.037 96.2305 179.734 96.3496 183.485 96.3496C189.589 96.3496 190.452 96.5878 191.286 98.3444C191.971 99.7736 191.703 101.292 190.541 102.453L189.648 103.346L179.436 103.495C169.522 103.644 169.224 103.674 167.854 104.329C165.115 105.669 163.15 108.825 163.15 111.832C163.15 114.035 163.984 116 165.651 117.667C167.735 119.722 169.194 120.168 174.017 120.168C178.305 120.168 181.49 120.853 183.962 122.342C193.668 128.088 194.084 142.171 184.736 148.423C183.336 149.346 181.877 150.031 180.538 150.388C177.203 151.281 177.441 150.835 177.441 155.688C177.441 158.605 177.322 160.064 177.084 160.302C176.608 160.779 171.129 160.779 170.653 160.302C170.415 160.064 170.296 158.635 170.296 155.866C170.296 152.919 170.177 151.728 169.909 151.49C169.7 151.281 167.259 151.132 163.805 151.073L158.089 150.983L157.195 150.09C156.034 148.929 155.766 147.411 156.451 145.982C157.344 144.046 157.791 143.987 168.122 143.987C179.138 143.987 179.644 143.897 182.086 141.486C185.242 138.3 185.42 133.536 182.503 130.202C180.478 127.909 179.287 127.522 173.571 127.284C167.795 127.076 165.591 126.48 162.435 124.217C156.481 119.99 154.486 111.534 157.85 104.835C159.696 101.203 163.448 98.0765 167.199 97.094C170.534 96.2008 170.296 96.6474 170.296 91.7943C170.296 88.8766 170.415 87.4177 170.653 87.1795C170.891 86.9413 172.052 86.8222 173.868 86.8222C175.685 86.8222 176.846 86.9413 177.084 87.1795Z" fill="black"/>
<path d="M108.724 101.471C108.516 101.679 108.367 102.602 108.367 103.525C108.367 104.538 108.218 105.342 107.98 105.52C107.771 105.699 106.819 105.877 105.866 105.937C103.901 106.026 103.186 106.622 103.782 107.575C104.02 107.962 104.586 108.14 105.866 108.2C106.819 108.259 107.771 108.438 107.98 108.587C108.188 108.765 108.367 109.718 108.426 110.701C108.516 112.725 109.111 113.47 110.094 112.844C110.451 112.606 110.63 112.041 110.689 110.701C110.749 109.718 110.927 108.765 111.136 108.587C111.344 108.438 112.297 108.259 113.25 108.2C114.53 108.14 115.096 107.962 115.334 107.575C115.929 106.622 115.215 106.026 113.25 105.937C112.297 105.877 111.344 105.699 111.136 105.52C110.898 105.342 110.749 104.538 110.749 103.525C110.749 101.799 110.421 101.114 109.558 101.114C109.29 101.114 108.933 101.263 108.724 101.471Z" fill="black"/>
<path d="M120.456 132.733C120.218 133.12 117.926 140.772 115.365 149.793C112.537 159.588 110.363 166.704 109.917 167.478C108.428 170.039 103.813 174.356 102.533 174.356C101.788 174.356 101.223 173.403 101.223 172.153C101.223 171.468 101.074 170.753 100.865 170.545C100.359 170.039 75.8858 170.039 75.3796 170.545C74.8735 171.051 74.8735 224.107 75.3796 224.613C75.8858 225.119 100.359 225.119 100.865 224.613C101.074 224.405 101.223 223.72 101.223 223.035C101.223 221.755 101.61 221.1 102.414 221.1C102.652 221.1 105.838 221.963 109.5 223.035L116.109 225L137.784 224.911L159.429 224.821L160.68 224.166C162.347 223.273 163.985 221.546 164.699 219.968C165.801 217.497 165.384 213.716 163.747 211.662C163.419 211.245 163.151 210.739 163.151 210.5C163.151 210.292 163.866 209.429 164.759 208.595C166.932 206.511 167.617 205.022 167.617 202.343C167.617 200.169 167.17 198.71 166.128 197.37C165.801 196.954 165.533 196.447 165.533 196.209C165.533 196.001 166.247 195.137 167.141 194.304C169.314 192.249 169.999 190.731 169.999 188.081C169.999 185.789 169.731 184.866 168.629 183.228C167.706 181.918 167.855 181.293 169.225 180.37C171.13 179.06 172.649 176.231 172.678 173.879C172.678 171.587 171.875 169.622 170.178 167.925C167.617 165.364 168.034 165.424 149.426 165.424C131.472 165.424 132.246 165.513 132.574 163.369C132.663 162.774 133.169 158.874 133.705 154.705C134.599 147.828 134.628 146.905 134.331 144.493C133.556 138.3 129.626 133.656 124.118 132.405C121.945 131.899 120.933 131.988 120.456 132.733ZM125.815 135.621C129.18 137.199 131.264 140.236 131.919 144.583C132.246 146.637 132.157 147.649 130.996 156.849C129.954 165.007 129.805 167.002 130.103 167.359C130.43 167.746 132.693 167.806 147.818 167.806C165.831 167.806 166.218 167.835 168.034 169.086C169.016 169.771 170.297 172.331 170.297 173.641C170.297 175.815 168.957 178.077 167.111 179C166.128 179.507 165.057 179.596 158.864 179.715C152.522 179.834 151.718 179.923 151.42 180.37C151.182 180.757 151.182 181.055 151.42 181.412C151.718 181.888 152.462 181.978 157.673 182.097C163.687 182.275 164.134 182.335 165.652 183.377C166.635 184.062 167.915 186.622 167.915 187.932C167.915 190.106 166.575 192.369 164.729 193.292C163.747 193.798 162.675 193.887 156.482 194.006C150.14 194.125 149.336 194.214 149.039 194.661C148.8 195.048 148.8 195.346 149.039 195.703C149.336 196.18 150.081 196.269 155.291 196.388C161.305 196.567 161.752 196.626 163.27 197.668C164.253 198.353 165.533 200.913 165.533 202.223C165.533 204.397 164.193 206.66 162.347 207.583C161.365 208.089 160.293 208.178 154.1 208.297C147.758 208.416 146.954 208.506 146.657 208.952C146.418 209.339 146.418 209.637 146.657 209.994C146.954 210.471 147.699 210.56 152.909 210.679C158.923 210.858 159.37 210.917 160.888 211.959C161.871 212.644 163.151 215.175 163.151 216.455C163.151 218.986 161.365 221.546 159.102 222.231C158.179 222.499 152.701 222.588 137.427 222.588H116.973L109.47 220.445C105.331 219.284 101.788 218.182 101.61 218.033C101.312 217.825 101.223 213.388 101.223 197.728C101.223 182.037 101.312 177.631 101.61 177.422C101.788 177.274 102.503 176.976 103.158 176.767C105.123 176.112 107.058 174.713 109.172 172.421C112.596 168.729 112.626 168.669 117.598 151.282C120.069 142.618 122.243 135.353 122.421 135.144C122.898 134.549 123.85 134.668 125.815 135.621ZM98.4836 172.927C98.9898 173.433 98.9898 221.725 98.4836 222.231C97.9775 222.737 78.2676 222.737 77.7615 222.231C77.2553 221.725 77.2553 173.433 77.7615 172.927C78.2676 172.421 97.9775 172.421 98.4836 172.927Z" fill="black"/>
<path d="M196.853 189.599C196.645 189.808 196.496 190.731 196.496 191.654C196.496 192.666 196.347 193.47 196.109 193.649C195.9 193.827 194.948 194.006 193.995 194.065C192.715 194.125 192.149 194.304 191.911 194.661C191.315 195.643 192.03 196.239 193.995 196.328C194.948 196.388 195.9 196.566 196.109 196.715C196.317 196.894 196.496 197.847 196.555 198.829C196.615 200.169 196.794 200.735 197.181 200.973C198.133 201.598 198.729 200.854 198.818 198.829C198.878 197.847 199.056 196.894 199.265 196.715C199.473 196.566 200.426 196.388 201.379 196.328C202.659 196.269 203.225 196.09 203.463 195.703C204.058 194.75 203.344 194.155 201.379 194.065C200.426 194.006 199.473 193.827 199.265 193.649C199.027 193.47 198.878 192.666 198.878 191.654C198.878 189.927 198.55 189.242 197.687 189.242C197.419 189.242 197.062 189.391 196.853 189.599Z" fill="black"/>
<defs>
<linearGradient id="paint0_linear_77_61" x1="47.5" y1="231" x2="200" y2="-55" gradientUnits="userSpaceOnUse">
<stop stop-color="#4B4116"/>
<stop offset="0.348958" stop-color="#EECE47"/>
</linearGradient>
</defs>
</svg>
