<svg width="300" height="300" viewBox="0 0 300 300" fill="none" xmlns="http://www.w3.org/2000/svg">
<path d="M23.0962 76.732L150 3.4641L276.904 76.732V223.268L150 296.536L23.0962 223.268V76.732Z" fill="white" stroke="url(#paint0_linear_77_61)" stroke-width="6"/>
<path d="M144.604 75.3136C138.011 76.8441 133.185 80.6995 130.418 86.6151C127.946 91.9421 127.976 98.5053 130.507 103.509C132.655 107.747 135.216 110.454 139.13 112.514C149.401 117.989 161.792 113.839 166.736 103.214C168.178 100.124 168.679 97.4457 168.502 93.8846C168.06 85.4379 162.469 78.3156 154.316 75.7845C151.697 74.9605 147.076 74.7545 144.604 75.3136ZM152.933 77.2855C158.054 78.5511 162.675 82.3182 164.941 87.1155C165.941 89.2639 166.824 92.8545 166.824 94.9147C166.824 98.7113 164.794 104.038 162.233 106.923C155.552 114.486 143.78 115.163 136.393 108.423C128.682 101.331 128.388 89.5288 135.745 82.1711C138.688 79.228 142.014 77.5504 146.37 76.8735C147.635 76.6675 151.285 76.9029 152.933 77.2855Z" fill="black"/>
<path d="M116.056 79.3167C115.526 79.9053 115.526 79.9347 116.615 81.0531C117.469 81.936 117.704 82.3775 117.616 83.025C117.469 84.4671 116.762 84.6142 109.081 84.6142H102.076V85.4972V86.3801H109.522C114.908 86.3801 117.057 86.4684 117.321 86.7333C117.998 87.4102 117.704 88.5286 116.586 89.6764L115.497 90.7947L116.144 91.4422L116.792 92.1191L119.764 89.176C121.383 87.5573 122.854 85.9975 123.002 85.7032C123.266 85.2323 122.825 84.6437 120.147 81.936C118.41 80.1702 116.88 78.728 116.792 78.728C116.674 78.728 116.35 78.9929 116.056 79.3167Z" fill="black"/>
<path d="M117.881 100.036C109.816 104.745 102.724 111.455 97.6614 119.196C95.3658 122.698 92.3344 129.055 90.9512 133.205C88.8616 139.503 87.9492 145.183 87.9492 151.982C87.9492 155.425 88.0081 155.867 88.4201 155.72C88.685 155.631 89.0382 155.543 89.2442 155.543C89.5385 155.543 89.6562 154.307 89.8034 150.599C90.3331 134.735 96.337 121.109 107.55 110.219C111.729 106.158 114.79 103.892 120.765 100.36C121.236 100.066 121.236 99.9479 120.882 99.3004L120.47 98.5352L117.881 100.036Z" fill="black"/>
<path d="M176.242 99.3003C176.094 99.6241 175.947 99.9478 175.947 100.007C175.947 100.095 177.213 100.89 178.743 101.802C190.545 108.865 199.992 120.549 204.289 133.47C205.555 137.207 206.761 142.799 207.026 146.066L207.232 148.479H208.204H209.175L209.028 146.92C207.821 135.147 203.789 124.817 196.667 115.34C192.134 109.336 184.159 102.479 178.066 99.3592C176.595 98.594 176.624 98.594 176.242 99.3003Z" fill="black"/>
<path d="M214.503 113.545C214.503 118.931 214.414 121.079 214.15 121.344C213.502 121.991 212.619 121.697 211.354 120.461L210.088 119.225L209.441 119.872L208.764 120.52L212.001 123.757C213.767 125.553 215.356 126.995 215.533 126.995C215.709 126.995 217.299 125.553 219.065 123.757L222.302 120.52L221.625 119.872L220.978 119.225L219.712 120.461C218.446 121.697 217.564 121.991 216.916 121.344C216.651 121.079 216.563 118.931 216.563 113.545V106.099H215.533H214.503V113.545Z" fill="black"/>
<path d="M142.455 124.728L141.808 125.405L143.279 126.847C144.309 127.878 144.751 128.525 144.751 129.084C144.751 130.026 144.368 130.379 142.808 130.791C141.219 131.203 137.923 132.969 136.01 134.441C134.273 135.736 131.654 139.032 130.477 141.357C127.916 146.507 127.946 153.482 130.565 158.692C131.742 160.987 133.861 163.754 135.392 165.019C137.246 166.52 137.364 166.55 137.717 165.755C138.011 165.108 137.864 164.872 135.833 162.842C131.065 158.074 129.299 151.363 131.124 144.947C132.449 140.268 136.098 135.853 140.424 133.793C143.25 132.41 144.574 132.057 145.163 132.557C145.957 133.234 145.869 134.058 144.751 136.383L143.632 138.708L144.339 139.032C144.751 139.208 145.133 139.356 145.192 139.356C145.398 139.356 149.46 131.174 149.46 130.732C149.46 130.526 148.018 128.937 146.281 127.201L143.103 124.022L142.455 124.728Z" fill="black"/>
<path d="M159.438 134.176C159.144 134.824 159.262 135.059 161.292 137.09C165.001 140.828 166.649 144.801 166.619 149.951C166.619 154.66 165.324 158.133 162.323 161.665C159.939 164.431 157.731 165.962 154.229 167.198C152.522 167.786 151.904 167.639 151.492 166.521C151.315 166.05 151.58 165.255 152.404 163.548L153.523 161.194L152.816 160.87C152.404 160.694 152.022 160.546 151.963 160.546C151.757 160.546 147.695 168.728 147.695 169.17C147.695 169.376 149.137 170.965 150.874 172.701L154.052 175.88L154.7 175.174L155.347 174.497L153.876 173.055C152.846 172.024 152.404 171.377 152.404 170.818C152.404 169.876 152.757 169.582 154.317 169.081C156.113 168.522 159.468 166.756 160.998 165.55C163.853 163.283 166.325 159.781 167.62 156.073C168.297 154.189 168.415 153.453 168.415 150.098C168.415 146.714 168.326 146.007 167.62 143.918C166.59 140.769 165.001 138.208 162.764 135.942C160.321 133.47 159.85 133.234 159.438 134.176Z" fill="black"/>
<path d="M183.924 156.543C183.689 156.808 183.63 162.282 183.659 176.468L183.748 196.01H203.614H223.479L223.568 176.468C223.597 162.282 223.538 156.808 223.303 156.543C223.038 156.19 219.565 156.131 203.614 156.131C187.662 156.131 184.189 156.19 183.924 156.543ZM221.302 158.751C221.831 159.398 221.861 160.134 221.861 176.262C221.861 191.007 221.802 193.155 221.39 193.744L220.948 194.392H203.496C189.104 194.392 185.955 194.333 185.69 193.98C185.455 193.715 185.396 188.77 185.425 176.115L185.513 158.662L186.249 158.28C186.838 157.985 190.634 157.927 203.849 157.985L220.742 158.044L221.302 158.751Z" fill="black"/>
<path d="M96.985 157.662C90.1276 169.552 75.883 195.393 76.0007 195.716C76.1479 196.099 79.2087 196.158 98.3977 196.158H120.618V195.54C120.618 195.186 115.762 186.239 109.817 175.674C97.8974 154.483 98.4271 155.219 96.985 157.662ZM107.904 175.909C119.147 196.069 118.058 194.009 117.616 194.304C117.116 194.598 82.4461 194.774 80.2094 194.48L78.5024 194.245L83.7411 184.827C86.6547 179.647 91.04 171.73 93.5416 167.256C96.0432 162.754 98.1917 159.075 98.28 159.075C98.3977 159.075 102.724 166.668 107.904 175.909Z" fill="black"/>
<path d="M178.805 202.809C177.274 203.81 172.389 206.223 170.064 207.136C159.881 211.138 147.637 212.168 136.866 209.99C131.038 208.784 124.092 206.253 119.943 203.781C118.03 202.633 117.912 202.603 117.529 203.133C117.294 203.427 117.088 203.81 117.088 204.016C117.088 204.575 125.682 208.666 129.596 209.961C135.894 212.051 141.516 212.934 148.638 212.934C155.613 212.934 161.646 211.962 168.003 209.814C171.417 208.637 176.774 206.194 179.511 204.546C181.189 203.516 181.247 203.427 180.865 202.839C180.306 201.985 180.07 201.985 178.805 202.809Z" fill="black"/>
<path d="M94.6904 207.253L91.4824 210.402L92.1299 211.079L92.7774 211.756L93.9841 210.579C95.2202 209.372 96.3385 209.078 97.0154 209.755C97.2803 210.02 97.3686 212.168 97.3686 217.554V225H98.2515H99.1345V217.995C99.1345 210.461 99.2816 209.608 100.606 209.46C101.136 209.402 101.666 209.696 102.49 210.549L103.667 211.756L104.344 211.109L105.05 210.461L101.872 207.283C100.135 205.546 98.5164 204.104 98.281 204.104C98.0455 204.104 96.4268 205.517 94.6904 207.253Z" fill="black"/>
<defs>
<linearGradient id="paint0_linear_77_61" x1="47.5" y1="231" x2="200" y2="-55" gradientUnits="userSpaceOnUse">
<stop stop-color="#4B4116"/>
<stop offset="0.348958" stop-color="#EECE47"/>
</linearGradient>
</defs>
</svg>
