<svg width="300" height="300" viewBox="0 0 300 300" fill="none" xmlns="http://www.w3.org/2000/svg">
<path d="M23.0962 76.732L150 3.4641L276.904 76.732V223.268L150 296.536L23.0962 223.268V76.732Z" fill="white" stroke="url(#paint0_linear_77_61)" stroke-width="6"/>
<path d="M89.2299 70.1873C76.9875 72.0937 67.575 81.8041 66.175 94.0167C65.0431 103.608 69.4813 113.646 77.1961 119.067L78.8641 120.259L77.8811 123.059C75.4982 129.91 74.2472 136.761 73.9791 144.505C73.6217 155.02 75.3493 164.611 79.3705 174.411C80.1151 176.228 81.0087 178.283 81.3662 178.968L81.9917 180.189L82.5577 178.938L83.0938 177.687L82.3194 175.99C79.7577 170.36 77.5237 162.705 76.6599 156.42C76.0344 151.981 75.9748 142.301 76.511 138.697C77.3152 133.514 77.8216 131.012 78.7152 127.825C79.4896 125.025 80.5917 121.748 80.8598 121.48C80.9194 121.45 81.7236 121.748 82.6768 122.165C89.0809 125.025 97.8382 124.846 104.451 121.748C107.578 120.259 109.276 119.097 111.838 116.684C120.387 108.463 122.65 96.0719 117.527 85.2296C117.11 84.3956 116.783 83.5615 116.783 83.4126C116.783 83.2637 117.408 82.8765 118.212 82.5786C124.914 79.9871 129.501 78.6765 135.131 77.7234C139.718 76.9489 152.199 76.9489 156.697 77.7234C159.705 78.2297 168.701 80.4637 169.386 80.851C169.654 80.9999 169.594 81.5063 169.207 82.7573L168.671 84.4849H169.326C169.654 84.4551 171.858 84.0977 174.181 83.6509L178.411 82.8467L175.254 79.2723C173.496 77.3064 171.947 75.6979 171.769 75.6979C171.62 75.6979 171.262 76.3234 170.994 77.0978C170.726 77.8723 170.428 78.5872 170.369 78.6765C170.279 78.7361 168.552 78.3489 166.526 77.7532C150.173 73.166 134.208 73.9405 119.017 79.9871L115.442 81.4169L114.102 79.8978C109.932 75.1915 105.374 72.3022 99.8637 70.9022C96.617 70.0682 91.9702 69.7703 89.2299 70.1873ZM96.885 72.4213C102.396 73.2554 107.161 75.7574 111.183 79.9574C122.978 92.3188 119.165 112.425 103.647 119.752C91.4639 125.531 76.779 120.348 70.6728 108.165C69.0047 104.829 68.4984 102.565 68.3196 98.0081C68.1111 92.8252 68.6771 90.2933 70.9409 85.7062C74.5748 78.4978 81.6343 73.4937 89.8256 72.3022C92.5064 71.915 93.7276 71.9448 96.885 72.4213Z" fill="black"/>
<path d="M92.0599 80.1657C92.0599 82.0422 91.9706 82.4592 91.5536 82.6082C90.0047 83.1145 87.6515 84.306 87.026 84.872C85.8643 85.9443 84.9111 88.2974 84.9111 90.1442C84.9409 93.659 86.4601 95.2973 92.3876 98.127C94.6216 99.1993 96.4088 100.272 96.796 100.748C99.03 103.608 97.8088 107.331 94.2939 108.314C92.477 108.82 89.6174 108.523 87.2941 107.599L85.4771 106.855L85.0303 107.867C84.792 108.433 84.6133 109.089 84.6133 109.327C84.6133 110.012 86.2218 110.697 89.0515 111.293L91.6131 111.799L91.7025 114.093L91.7919 116.356H93.1025H94.4429V113.825C94.4429 111.561 94.5025 111.293 95.0088 111.293C95.8428 111.293 97.3918 110.578 98.8215 109.535C101.651 107.48 102.664 102.863 100.907 99.9142C99.7449 97.9483 98.1066 96.727 93.7578 94.642C89.4983 92.5867 88.7834 91.8718 88.7834 89.5782C88.7834 85.4379 93.4301 84.1571 99.2385 86.6889C99.6258 86.8677 99.8343 86.5996 100.221 85.4975C100.49 84.723 100.668 84.0677 100.609 84.0379C100.192 83.6507 98.5236 83.0252 97.5705 82.8762C94.4727 82.3699 94.7407 82.6082 94.7407 80.1359V77.9317H93.4003H92.0599V80.1657Z" fill="black"/>
<path d="M144.186 103.429C141.952 104.382 141.267 105.574 140.731 109.446C140.523 110.995 140.314 112.276 140.255 112.305C140.195 112.335 138.765 112.931 137.038 113.646C135.31 114.331 133.553 115.046 133.136 115.225C132.421 115.522 132.182 115.403 130.306 113.884C127.953 112.008 127.089 111.591 125.391 111.591C123.514 111.591 122.263 112.484 117.944 116.863C114.757 120.08 113.804 121.241 113.536 122.165C113.357 122.82 113.208 123.475 113.208 123.654C113.208 124.756 114.072 126.454 115.71 128.599L117.617 131.071L116.932 132.411C116.574 133.156 115.889 134.794 115.442 136.045L114.668 138.309L111.749 138.637C107.728 139.054 106.208 139.947 105.255 142.39C104.689 143.879 104.749 154.215 105.315 155.615C106.387 158.117 107.668 158.832 111.898 159.309C114.281 159.577 115.085 159.756 115.204 160.113C115.293 160.381 115.889 161.841 116.515 163.33C117.17 164.849 117.676 166.16 117.676 166.219C117.676 166.309 116.872 167.381 115.859 168.632C113.149 172.028 112.702 173.547 113.655 175.87C114.281 177.33 121.608 184.747 123.187 185.491C125.48 186.564 127.327 186.027 130.663 183.257C131.765 182.334 132.808 181.589 132.927 181.589C133.076 181.589 133.821 181.917 134.595 182.304C135.37 182.691 136.829 183.317 137.842 183.674C139.927 184.419 139.718 184.002 140.314 188.708C140.642 191.568 141.297 192.849 142.935 193.861C143.978 194.517 144.395 194.546 149.965 194.636C156.667 194.755 157.769 194.546 159.348 192.759C160.271 191.717 160.658 190.227 161.016 186.653L161.195 184.717L163.786 183.734C165.216 183.198 166.914 182.542 167.599 182.274L168.82 181.798L170.875 183.436C172.007 184.33 173.377 185.283 173.884 185.551C175.045 186.176 176.922 186.206 178.233 185.64C178.769 185.432 181.152 183.227 183.564 180.785C187.615 176.674 187.943 176.257 188.122 174.977C188.449 172.891 188.092 171.998 185.977 169.228L184.041 166.696L185.381 163.509C186.096 161.721 186.781 160.053 186.871 159.756C186.99 159.487 187.228 159.249 187.437 159.249C187.645 159.249 188.926 159.13 190.266 158.951C192.828 158.683 194.288 158.088 195.241 157.045C196.462 155.675 196.611 154.751 196.611 148.586C196.611 142.956 196.581 142.598 195.926 141.347C194.943 139.501 193.454 138.756 189.998 138.369C188.479 138.19 187.198 138.041 187.198 138.011C187.169 137.982 186.662 136.73 186.096 135.271C185.53 133.782 184.905 132.173 184.666 131.667C184.309 130.743 184.339 130.654 185.798 128.837C186.632 127.794 187.526 126.514 187.794 125.977C188.39 124.816 188.42 122.909 187.854 121.629C187.615 121.092 185.5 118.769 183.177 116.446C179.484 112.812 178.709 112.156 177.488 111.859C175.582 111.352 174.241 111.799 171.62 113.825C170.458 114.718 169.356 115.463 169.207 115.463C169.028 115.463 168.135 115.076 167.182 114.599C166.258 114.152 164.65 113.437 163.637 113.08C161.612 112.335 161.671 112.454 161.284 109.059C160.956 105.901 160.092 104.442 158.037 103.518C156.995 103.042 156.041 102.952 151.037 102.982C146.54 102.982 144.991 103.072 144.186 103.429ZM157.322 105.991C158.365 106.646 158.692 107.629 159.08 111.144C159.258 112.782 159.497 114.182 159.616 114.301C159.735 114.39 160.778 114.778 161.909 115.135C163.071 115.493 165.216 116.386 166.735 117.131C168.373 117.935 169.654 118.382 169.862 118.263C170.071 118.144 171.382 117.161 172.752 116.088C175.433 114.003 176.445 113.735 177.905 114.688C178.947 115.373 185.411 122.254 185.679 122.999C186.066 124.071 185.649 125.024 183.475 127.735C182.343 129.194 181.42 130.475 181.42 130.624C181.42 130.773 181.896 131.845 182.462 133.007C183.058 134.199 183.892 136.254 184.309 137.594C184.756 138.935 185.143 140.096 185.173 140.156C185.232 140.216 186.841 140.454 188.747 140.692C190.654 140.901 192.5 141.258 192.798 141.407C193.96 142.033 194.228 143.432 194.228 148.675C194.228 153.917 193.96 155.317 192.798 155.943C192.471 156.122 190.892 156.39 189.283 156.568C184.786 157.075 185.203 156.807 184.1 159.904C183.594 161.424 182.671 163.568 182.105 164.67C181.539 165.772 181.122 166.845 181.211 167.053C181.271 167.262 182.254 168.543 183.326 169.913C185.59 172.713 186.037 173.666 185.62 174.828C185.322 175.602 178.62 182.453 177.309 183.317C176.237 184.032 175.016 183.555 172.007 181.142C170.428 179.921 169.058 178.908 168.939 178.908C168.79 178.908 167.569 179.445 166.199 180.07C164.829 180.696 162.684 181.53 161.463 181.917C160.241 182.304 159.139 182.721 159.05 182.84C158.961 182.989 158.722 184.717 158.514 186.683C158.156 189.929 158.037 190.376 157.293 191.24L156.458 192.163L151.395 192.253C145.795 192.372 144.157 192.104 143.412 190.972C143.114 190.525 142.757 188.798 142.518 186.593C142.28 184.568 142.072 182.81 142.012 182.691C141.982 182.572 140.88 182.096 139.569 181.649C138.259 181.172 136.174 180.308 134.923 179.683L132.659 178.521L129.591 180.934C127.923 182.244 126.225 183.376 125.838 183.466C124.617 183.674 123.544 182.9 119.612 178.938C114.727 173.994 114.727 174.083 118.004 169.972C119.225 168.423 120.327 166.994 120.446 166.815C120.566 166.606 120.059 165.207 119.344 163.658C118.629 162.109 117.795 160.113 117.527 159.19C116.991 157.283 117.408 157.462 112.225 156.866C107.34 156.271 107.251 156.122 107.43 148.675C107.519 145.726 107.728 143.045 107.876 142.718C108.353 141.705 109.157 141.407 112.076 141.079C116.961 140.543 116.723 140.633 117.081 139.203C117.587 137.237 118.48 135.003 119.583 132.799L120.595 130.773L118.242 127.794C114.817 123.475 114.787 123.624 119.97 118.382C124.17 114.152 125.182 113.497 126.493 114.212C126.821 114.39 128.221 115.433 129.65 116.595L132.242 118.65L134.744 117.369C136.084 116.684 138.408 115.701 139.867 115.195C141.327 114.718 142.578 114.182 142.608 114.063C142.637 113.944 142.876 112.305 143.114 110.459C143.561 106.914 143.799 106.378 145.229 105.723C146.629 105.097 156.31 105.306 157.322 105.991Z" fill="black"/>
<path d="M145.973 125.59C140.969 126.663 137.812 128.39 134.059 132.144C131.735 134.437 130.931 135.48 129.829 137.654C126.046 145.041 126.076 152.756 129.948 160.232C130.931 162.139 131.825 163.3 134.059 165.505C137.842 169.317 140.969 171.015 146.122 172.087C149.131 172.713 151.484 172.802 154.314 172.356C165.513 170.568 173.854 161.394 174.479 150.164C175.343 134.586 161.135 122.344 145.973 125.59ZM157.56 128.718C164.441 131.041 170.249 137.565 171.62 144.445C172.066 146.739 171.977 151.386 171.441 153.679C169.803 160.649 164.381 166.636 157.56 168.93C154.552 169.913 149.756 170.27 146.778 169.675C140.373 168.453 134.714 164.105 131.795 158.237C130.246 155.049 129.591 152.339 129.591 148.824C129.591 145.279 130.246 142.569 131.854 139.292C134.476 134.02 139.629 129.82 145.437 128.271C148.743 127.378 154.165 127.586 157.56 128.718Z" fill="black"/>
<path d="M149.131 136.075C148.744 136.611 148.655 137.684 148.655 141.586C148.655 144.773 148.536 146.441 148.327 146.441C148.178 146.441 147.821 146.947 147.582 147.543C146.987 148.913 147.404 150.611 148.506 151.326C149.34 151.892 151.097 151.952 151.901 151.475C152.348 151.177 153.45 151.535 158.186 153.441C164.203 155.883 164.888 156.003 164.888 154.483C164.888 153.917 164.322 153.59 160.569 152.041C158.186 151.088 155.655 150.045 154.94 149.777C153.867 149.36 153.599 149.062 153.242 148.079C153.033 147.424 152.646 146.739 152.378 146.56C152.021 146.292 151.931 145.398 151.931 141.318C151.931 136.939 151.872 136.343 151.395 135.926C150.621 135.241 149.667 135.301 149.131 136.075Z" fill="black"/>
<path d="M216.567 121.182L215.882 122.582L216.925 124.905C219.099 129.612 220.827 135.331 221.989 141.377C222.852 145.994 223.061 156.896 222.406 162.198C221.72 167.441 219.278 177.211 218.384 178.104C218.265 178.223 217.372 177.985 216.418 177.568C211.742 175.483 204.951 174.947 199.768 176.198C189.342 178.73 181.449 186.891 179.275 197.376C178.113 202.916 178.977 209.797 181.419 214.652C181.926 215.635 182.313 216.559 182.313 216.708C182.313 217.006 177.666 218.882 174.27 219.954C162.624 223.678 149.607 224.154 137.633 221.325C132.897 220.223 126.91 218.227 126.91 217.78C126.91 217.572 127.118 216.827 127.356 216.142C127.595 215.427 127.744 214.801 127.684 214.712C127.535 214.593 117.646 215.189 117.497 215.338C117.408 215.427 124.11 223.469 124.467 223.708C124.586 223.767 124.973 223.112 125.271 222.218C125.569 221.325 125.956 220.61 126.165 220.61C126.344 220.61 127.684 221.027 129.173 221.533C133.135 222.874 139.122 224.363 143.143 224.959C148.088 225.703 158.722 225.703 163.547 224.959C169.713 224.005 176.326 222.159 181.628 219.895L183.921 218.942L185.142 220.431C188.24 224.274 194.019 227.907 199.142 229.307C202.568 230.231 209.419 230.231 212.844 229.307C222.852 226.597 230.716 218.346 232.771 208.338C233.367 205.419 233.397 200.146 232.801 197.317C231.491 191.061 228.125 185.551 223.299 181.679C222.137 180.725 221.065 179.891 220.946 179.802C220.827 179.683 221.244 177.925 221.929 175.9C223.418 171.372 224.759 164.849 225.235 159.726C225.652 155.139 225.444 147.335 224.759 142.867C223.746 136.105 221.393 128.42 218.533 122.463L217.252 119.782L216.567 121.182ZM212.844 178.908C216.21 179.951 219.546 181.738 221.899 183.734C232.771 192.908 233.873 209.082 224.312 219.508C220.827 223.32 216.835 225.644 211.504 227.044C208.674 227.788 203.134 227.699 200.036 226.895C190.296 224.303 183.266 216.708 181.538 206.908C179.304 193.98 187.853 181.411 200.87 178.432C203.7 177.806 210.163 178.045 212.844 178.908Z" fill="black"/>
<path d="M204.653 185.73V188.053L202.806 188.738C199.292 189.989 197.147 193.325 197.653 196.721C197.921 198.568 198.398 199.402 199.977 200.861C201.406 202.202 202.538 202.827 205.517 204.048C209.002 205.448 210.61 207.206 210.61 209.559C210.61 212.359 208.436 214.057 204.862 214.057C203.104 214.057 201.317 213.61 198.696 212.448C198.368 212.299 198.1 212.627 197.713 213.789C197.415 214.623 197.206 215.338 197.266 215.397C198.16 216.172 201.794 217.333 203.402 217.333H204.355V219.716V222.099H205.845H207.334V219.716C207.334 217.363 207.334 217.333 208.168 217.155C210.7 216.529 213.381 214.325 214.334 212.091C214.84 210.84 214.93 208.159 214.483 206.55C214.304 205.955 213.559 204.793 212.815 203.959C211.713 202.708 210.73 202.082 207.542 200.534C205.368 199.491 203.223 198.24 202.777 197.734C201.109 195.976 201.585 193.146 203.76 191.866C205.219 191.032 208.645 191.091 210.879 191.985C211.772 192.342 212.576 192.521 212.696 192.402C212.815 192.283 213.113 191.598 213.41 190.883L213.887 189.602L212.547 189.006C211.832 188.678 210.462 188.321 209.508 188.202L207.781 187.993L207.691 185.67L207.602 183.376H206.142H204.653V185.73Z" fill="black"/>
<defs>
<linearGradient id="paint0_linear_77_61" x1="47.5" y1="231" x2="200" y2="-55" gradientUnits="userSpaceOnUse">
<stop offset="0.339459" stop-color="#EECE47"/>
<stop offset="0.989263"/>
</linearGradient>
</defs>
</svg>
